<svg xmlns="http://www.w3.org/2000/svg" width="26.003" height="31.502" viewBox="0 0 26.003 31.502">
  <g id="Grupo_98" data-name="Grupo 98" transform="translate(-18.998 -16.248)" opacity="0.667">
    <path id="Trazado_43" data-name="Trazado 43" d="M32,47.75a2,2,0,0,1-1.45-.62l-11-11.5a2,2,0,1,1,2.9-2.76l11,11.5A2,2,0,0,1,32,47.75Z"/>
    <path id="Trazado_44" data-name="Trazado 44" d="M32,47.75a2,2,0,0,1-1.45-3.38l11-11.5a2,2,0,1,1,2.9,2.76l-11,11.5a2,2,0,0,1-1.45.62Zm0-16a2,2,0,0,1-1.45-.62l-11-11.5a2,2,0,0,1,2.9-2.76l11,11.5A2,2,0,0,1,32,31.75Z"/>
    <path id="Trazado_45" data-name="Trazado 45" d="M32,31.75a2,2,0,0,1-1.45-3.38l11-11.5a2,2,0,0,1,2.9,2.76l-11,11.5A2,2,0,0,1,32,31.75Z"/>
  </g>
</svg>
