<svg xmlns="http://www.w3.org/2000/svg" width="337.163" height="147.854" viewBox="0 0 337.163 147.854">
  <g id="Grupo_108" data-name="Grupo 108" transform="translate(-443.967 -258.81)">
    <g id="Grupo_108-2" data-name="Grupo 108" transform="translate(443.967 359.783)">
      <path id="Trazado_60" data-name="Trazado 60" d="M470.275,641.186a12.381,12.381,0,0,0-4.457-3.17,14.582,14.582,0,0,0-5.692-1.092,17.842,17.842,0,0,0-6.287,1.111,15.247,15.247,0,0,0-5.151,3.167,15.07,15.07,0,0,0-3.448,4.936,16.779,16.779,0,0,0,0,12.826,15.073,15.073,0,0,0,3.448,4.937,15.248,15.248,0,0,0,5.151,3.167,17.843,17.843,0,0,0,6.287,1.111,17.189,17.189,0,0,0,6.729-1.358,15.186,15.186,0,0,0,5.84-4.588.71.71,0,0,0-.124-1.013l-5.091-3.847a.71.71,0,0,0-.977.116,11.744,11.744,0,0,1-2.987,2.6,7.819,7.819,0,0,1-4.1.992,7.031,7.031,0,0,1-4.7-1.611,6.2,6.2,0,0,1-2.115-3.716h20.839a.71.71,0,0,0,.711-.71v-1.953a21.262,21.262,0,0,0-1.015-6.829A14.579,14.579,0,0,0,470.275,641.186ZM452.624,649a7.193,7.193,0,0,1,1.933-3.7,6.171,6.171,0,0,1,4.563-1.631,6.683,6.683,0,0,1,4.778,1.609A5.67,5.67,0,0,1,465.591,649Z" transform="translate(-443.967 -621.297)" fill="#17100d"/>
      <path id="Trazado_61" data-name="Trazado 61" d="M599.919,586.248h-7.1a.71.71,0,0,0-.71.71v18.3q-.172-.165-.356-.33a11.726,11.726,0,0,0-2.143-1.484,13.057,13.057,0,0,0-2.881-1.129,14.51,14.51,0,0,0-3.735-.439,14.078,14.078,0,0,0-5.858,1.218,13.72,13.72,0,0,0-4.586,3.339,15.349,15.349,0,0,0-2.95,4.964,17.546,17.546,0,0,0-1.05,6.107,18.5,18.5,0,0,0,.986,6.093,14.276,14.276,0,0,0,2.928,4.981,13.948,13.948,0,0,0,4.644,3.337,15.024,15.024,0,0,0,6.18,1.217,14.208,14.208,0,0,0,5.917-1.247,9.625,9.625,0,0,0,3.258-2.411v2.238a.71.71,0,0,0,.71.71h6.748a.71.71,0,0,0,.711-.71V586.958A.71.71,0,0,0,599.919,586.248Zm-15.213,39.068a7.4,7.4,0,0,1-5.605-2.377,7.335,7.335,0,0,1-1.512-2.485,8.655,8.655,0,0,1,0-5.9,7.357,7.357,0,0,1,1.512-2.484,7.686,7.686,0,0,1,11.21,0,7.388,7.388,0,0,1,1.512,2.484,8.653,8.653,0,0,1,0,5.906,7.349,7.349,0,0,1-1.512,2.484,7.4,7.4,0,0,1-5.605,2.377Z" transform="translate(-530.129 -586.248)" fill="#17100d"/>
      <path id="Trazado_62" data-name="Trazado 62" d="M735.116,639.228h-7.1a.71.71,0,0,0-.71.71v15.509a9.638,9.638,0,0,1-.33,2.536,5.668,5.668,0,0,1-1.025,2.054,5.052,5.052,0,0,1-1.768,1.4,6.119,6.119,0,0,1-2.678.52,3.819,3.819,0,0,1-2.477-.7,4.449,4.449,0,0,1-1.332-1.845,8.76,8.76,0,0,1-.574-2.52c-.077-.935-.116-1.8-.116-2.576V639.938a.71.71,0,0,0-.71-.71h-7.1a.71.71,0,0,0-.711.71v17.936a17.151,17.151,0,0,0,.556,4.385,10.438,10.438,0,0,0,1.906,3.841,9.429,9.429,0,0,0,3.484,2.689,12.194,12.194,0,0,0,5.123.983,9.832,9.832,0,0,0,6.052-1.713,11.466,11.466,0,0,0,2.057-1.989v2.281a.71.71,0,0,0,.71.71h6.748a.71.71,0,0,0,.71-.71V639.938A.71.71,0,0,0,735.116,639.228Z" transform="translate(-626.911 -622.89)" fill="#17100d"/>
      <path id="Trazado_63" data-name="Trazado 63" d="M875.14,640.766a9.127,9.127,0,0,0-3.43-2.824,11.685,11.685,0,0,0-5.1-1.018,11.988,11.988,0,0,0-5.848,1.361,10.229,10.229,0,0,0-3.428,3.163c-1.721-3-4.726-4.524-8.956-4.524a9.967,9.967,0,0,0-6.078,1.71,11.655,11.655,0,0,0-2.031,1.913v-2.2a.711.711,0,0,0-.711-.71h-6.748a.71.71,0,0,0-.71.71v28.413a.71.71,0,0,0,.71.71h7.1a.71.71,0,0,0,.71-.71V651.249a9.638,9.638,0,0,1,.33-2.536,5.684,5.684,0,0,1,1.025-2.054,5.066,5.066,0,0,1,1.767-1.4,6.126,6.126,0,0,1,2.678-.52,3.588,3.588,0,0,1,3.152,1.272,6.487,6.487,0,0,1,.992,3.819v16.929a.71.71,0,0,0,.71.71h7.1a.71.71,0,0,0,.711-.71v-15.39a10.633,10.633,0,0,1,.305-2.525,6.113,6.113,0,0,1,.953-2.123A4.809,4.809,0,0,1,862,645.274a5.2,5.2,0,0,1,2.475-.537,4.9,4.9,0,0,1,2.272.45,3.475,3.475,0,0,1,1.333,1.207,5.347,5.347,0,0,1,.729,1.882,12.511,12.511,0,0,1,.224,2.38v16.1a.71.71,0,0,0,.711.71h7.1a.71.71,0,0,0,.71-.71V649.828A21.2,21.2,0,0,0,877,644.9,11.476,11.476,0,0,0,875.14,640.766Z" transform="translate(-712.408 -621.297)" fill="#17100d"/>
      <path id="Trazado_64" data-name="Trazado 64" d="M1037.445,641.2a15.266,15.266,0,0,0-5.151-3.167,18.347,18.347,0,0,0-12.574,0,15.243,15.243,0,0,0-5.151,3.167,15.071,15.071,0,0,0-3.448,4.936,16.777,16.777,0,0,0,0,12.826,15.07,15.07,0,0,0,3.448,4.937,15.245,15.245,0,0,0,5.151,3.167,18.349,18.349,0,0,0,12.574,0,15.265,15.265,0,0,0,5.151-3.167,15.107,15.107,0,0,0,3.448-4.937,16.773,16.773,0,0,0,0-12.826A15.1,15.1,0,0,0,1037.445,641.2Zm-11.438,19.163a7.4,7.4,0,0,1-5.605-2.377,7.34,7.34,0,0,1-1.512-2.485,8.654,8.654,0,0,1,0-5.905,7.344,7.344,0,0,1,1.511-2.484,7.686,7.686,0,0,1,11.21,0,7.378,7.378,0,0,1,1.512,2.484,8.651,8.651,0,0,1,0,5.906,7.351,7.351,0,0,1-1.512,2.485,7.4,7.4,0,0,1-5.6,2.376Z" transform="translate(-835.345 -621.297)" fill="#17100d"/>
      <path id="Trazado_65" data-name="Trazado 65" d="M1151.889,647.114a7.4,7.4,0,0,1,5.6-2.377,4.927,4.927,0,0,1,2.432.677,10.727,10.727,0,0,1,2.44,1.944.712.712,0,0,0,.505.22.757.757,0,0,0,.51-.208l4.913-4.913a.71.71,0,0,0,.02-.984,13.232,13.232,0,0,0-5.1-3.469,16.253,16.253,0,0,0-5.726-1.081,17.838,17.838,0,0,0-6.287,1.111,15.244,15.244,0,0,0-5.151,3.167,15.076,15.076,0,0,0-3.448,4.936,16.782,16.782,0,0,0,0,12.826,15.075,15.075,0,0,0,3.448,4.937,15.252,15.252,0,0,0,5.152,3.167,17.84,17.84,0,0,0,6.287,1.111,15.443,15.443,0,0,0,2.362-.216,18.111,18.111,0,0,0,2.835-.708,17.482,17.482,0,0,0,2.931-1.3,11.681,11.681,0,0,0,2.615-1.954.71.71,0,0,0,.018-.986l-4.735-5.091a.711.711,0,0,0-1.082.049,6.02,6.02,0,0,1-2.172,1.777,6.354,6.354,0,0,1-2.771.611,7.4,7.4,0,0,1-5.606-2.377,7.336,7.336,0,0,1-1.512-2.485,8.656,8.656,0,0,1,0-5.905A7.337,7.337,0,0,1,1151.889,647.114Z" transform="translate(-926.285 -621.297)" fill="#17100d"/>
      <path id="Trazado_66" data-name="Trazado 66" d="M1255.19,594.118a5.078,5.078,0,0,0-3.728,1.481,4.857,4.857,0,0,0,0,6.983,5.075,5.075,0,0,0,3.729,1.481,5.407,5.407,0,0,0,3.763-1.4,4.865,4.865,0,0,0,0-7.148A5.41,5.41,0,0,0,1255.19,594.118Z" transform="translate(-1001.428 -591.691)" fill="#17100d"/>
      <rect id="Rectángulo_14" data-name="Rectángulo 14" width="8.524" height="29.834" rx="2.303" transform="translate(249.558 16.337)" fill="#17100d"/>
      <path id="Trazado_67" data-name="Trazado 67" d="M1340.153,641.2a15.265,15.265,0,0,0-5.151-3.167,18.346,18.346,0,0,0-12.574,0,15.246,15.246,0,0,0-5.151,3.167,15.077,15.077,0,0,0-3.448,4.936,16.776,16.776,0,0,0,0,12.826,15.07,15.07,0,0,0,3.448,4.937,15.242,15.242,0,0,0,5.151,3.167,18.348,18.348,0,0,0,12.574,0,15.264,15.264,0,0,0,5.151-3.167,15.1,15.1,0,0,0,3.448-4.937,16.783,16.783,0,0,0,0-12.826A15.1,15.1,0,0,0,1340.153,641.2Zm-11.438,19.163a7.4,7.4,0,0,1-5.605-2.377,7.331,7.331,0,0,1-1.511-2.485,8.655,8.655,0,0,1,0-5.905,7.35,7.35,0,0,1,1.512-2.484,7.685,7.685,0,0,1,11.209,0,7.379,7.379,0,0,1,1.512,2.484,8.647,8.647,0,0,1,0,5.906,7.352,7.352,0,0,1-1.512,2.485,7.4,7.4,0,0,1-5.6,2.376Z" transform="translate(-1044.707 -621.297)" fill="#17100d"/>
      <path id="Trazado_68" data-name="Trazado 68" d="M1475.44,644.437a10.171,10.171,0,0,0-1.91-3.816,9.87,9.87,0,0,0-3.473-2.68,11.885,11.885,0,0,0-5.13-1.017,9.829,9.829,0,0,0-6.052,1.713,11.47,11.47,0,0,0-2.057,1.988v-2.28a.71.71,0,0,0-.71-.71h-6.749a.71.71,0,0,0-.71.71v28.413a.71.71,0,0,0,.71.71h7.1a.711.711,0,0,0,.711-.71V651.249a9.626,9.626,0,0,1,.33-2.536,5.675,5.675,0,0,1,1.025-2.054,5.064,5.064,0,0,1,1.768-1.4,6.128,6.128,0,0,1,2.678-.52,3.842,3.842,0,0,1,2.455.7,4.368,4.368,0,0,1,1.353,1.839,8.84,8.84,0,0,1,.574,2.52c.077.948.116,1.814.116,2.577v14.384a.71.71,0,0,0,.711.71h7.1a.711.711,0,0,0,.711-.71V648.822A17.179,17.179,0,0,0,1475.44,644.437Z" transform="translate(-1138.833 -621.297)" fill="#17100d"/>
      <path id="Trazado_69" data-name="Trazado 69" d="M1375.083,603.886l5.547,2.325a.711.711,0,0,0,.275.055.719.719,0,0,0,.269-.053.711.711,0,0,0,.386-.383l3.75-8.946a.711.711,0,0,0-.38-.93l-5.547-2.325a.71.71,0,0,0-.93.381l-3.749,8.947A.71.71,0,0,0,1375.083,603.886Z" transform="translate(-1087.652 -591.315)" fill="#17100d"/>
    </g>
    <path id="Trazado_70" data-name="Trazado 70" d="M883.068,299.77,905.35,279.39l29.6,24.7-28.3,34.761-43.829-.732L835.375,304l27.364-24.612Z" transform="translate(-270.708 -14.234)" fill="#fff"/>
    <path id="Trazado_71" data-name="Trazado 71" d="M921.181,285.8l-29.8-25.726a5.287,5.287,0,0,0-7.118.227l-18.22,17.878L847.826,260.3a5.288,5.288,0,0,0-7.118-.227l-29.662,25.61a5.289,5.289,0,0,0-.622,7.322l51.57,62.618a5.242,5.242,0,0,0,4.053,1.915h.005a5.242,5.242,0,0,0,4.052-1.907l51.692-62.5A5.288,5.288,0,0,0,921.181,285.8Zm-12.449,4.087-26.7,33.169H850.058l-26.7-33.169,20.527-17.869L862.358,290.2a5.281,5.281,0,0,0,7.376,0l18.472-18.183Z" transform="translate(-252.631 0)" fill="#17100d"/>
  </g>
</svg>
