<svg xmlns="http://www.w3.org/2000/svg" width="163.674" height="36.729" viewBox="0 0 163.674 36.729">
  <g id="Grupo_94" data-name="Grupo 94" transform="translate(0)">
    <g id="Grupo_11" data-name="Grupo 11">
      <path id="Trazado_22" data-name="Trazado 22" d="M4700,459.625c.442-.208.811-.413,1.2-.56a29.511,29.511,0,0,1,3.452-1.225,4.1,4.1,0,0,1,4.276,1.439.794.794,0,0,0,1.285.159,9.472,9.472,0,0,1,4.23-1.659c2.837-.386,4.917,1.212,5.072,4.107.1,1.913.042,3.835.05,5.753,0,.932.02,1.864,0,2.795a1.378,1.378,0,0,0,1.011,1.491,1.672,1.672,0,0,1,.95,2.371,1.135,1.135,0,0,1-.835.49c-1.833.044-3.668.021-5.5.024-.764,0-.961-.439-.958-1.121.014-3.288-.011-6.576.012-9.864.016-2.323-.575-2.74-2.877-1.974-1.434.477-1.525.683-1.525,2.208,0,2.11.022,4.22-.011,6.33a1.4,1.4,0,0,0,1.048,1.541,1.662,1.662,0,0,1,.933,2.373,1.166,1.166,0,0,1-.847.484c-1.833.044-3.668.017-5.5.025-.79,0-.938-.468-.936-1.132.011-3.288.007-6.576,0-9.865,0-2.283-.758-2.8-2.9-1.967-1.415.549-1.5.68-1.5,2.228,0,2.11.023,4.22-.011,6.33a1.423,1.423,0,0,0,1.057,1.541,1.645,1.645,0,0,1,.869,2.391,1.073,1.073,0,0,1-.776.451c-2.545.034-5.092.018-7.639.021a.827.827,0,0,1-.911-.848c-.044-.694-.248-1.6.619-1.85,1.334-.38,1.532-1.252,1.5-2.428-.05-1.807-.019-3.617-.012-5.425,0-1.085-.184-2.006-1.458-2.315-.714-.174-.7-.825-.682-1.414a1.2,1.2,0,0,1,.887-1.307c1.551-.44,3.089-.923,4.641-1.36,1.2-.338,1.6-.033,1.7,1.219C4699.919,459.211,4699.952,459.342,4700,459.625Z" transform="translate(-4637.243 -449.814)"/>
      <path id="Trazado_23" data-name="Trazado 23" d="M4372.147,412.74c-.449.29-.882.621-1.358.869a6.234,6.234,0,0,1-8.724-2.783,10.339,10.339,0,0,1,.57-10.43,7.387,7.387,0,0,1,6.808-3.387c.654.014,1.309.078,1.958.158.527.064.772-.1.737-.66-.03-.464.007-.932-.011-1.4-.045-1.148-.221-1.48-1.324-1.775-.958-.256-.817-.923-.85-1.6a1.116,1.116,0,0,1,.927-1.253c1.6-.451,3.205-.923,4.815-1.353,1.356-.362,1.756-.043,1.757,1.378q.009,9.374,0,18.749c0,1.391.017,1.411,1.282,1.936.719.3.967.978.754,2.025-.143.7-.635.786-1.237.775-1.206-.022-2.411-.007-3.616-.007C4373.042,413.981,4373.042,413.981,4372.147,412.74Zm-.016-7.244c0-1.343,0-2.686,0-4.029a1.21,1.21,0,0,0-1.091-1.375,3.473,3.473,0,0,0-3.937,2.353,8.159,8.159,0,0,0,.14,6.245,3.652,3.652,0,0,0,2.1,2.187c1.6.6,2.786-.175,2.787-1.845Q4372.133,407.264,4372.132,405.5Z" transform="translate(-4343.612 -388.986)"/>
      <path id="Trazado_24" data-name="Trazado 24" d="M5470.425,459.8c.608-.308,1.109-.568,1.616-.816a8.409,8.409,0,0,1,5.22-1.005,3.656,3.656,0,0,1,3.149,3.035,10.824,10.824,0,0,1,.22,2.281c.027,2.411.031,4.823,0,7.234a1.413,1.413,0,0,0,1.057,1.537,1.669,1.669,0,0,1,.938,2.374,1.159,1.159,0,0,1-.845.486c-1.834.044-3.668.02-5.5.023-.78,0-.941-.471-.939-1.137.012-3.233.007-6.467,0-9.7,0-2.416-.634-2.889-2.945-2.2-.288.085-.561.218-.844.315a1.392,1.392,0,0,0-1.01,1.56c.053,2.246.041,4.494.007,6.741a1.423,1.423,0,0,0,1.026,1.559,1.7,1.7,0,0,1,.9,2.389,1.076,1.076,0,0,1-.782.454c-2.546.034-5.093.02-7.639.021a.843.843,0,0,1-.919-.838c-.176-1.218.038-1.658,1.143-2.088a1.211,1.211,0,0,0,.916-1.206q-.01-3.574-.018-7.148a1.354,1.354,0,0,0-1.09-1.442c-.886-.228-1.007-.852-.978-1.635a1.27,1.27,0,0,1,1.112-1.3c1.45-.4,2.878-.869,4.324-1.281,1.272-.362,1.644-.09,1.754,1.208C5470.307,459.348,5470.352,459.475,5470.425,459.8Z" transform="translate(-5319.155 -449.95)"/>
      <path id="Trazado_25" data-name="Trazado 25" d="M4524.944,473.569a20.062,20.062,0,0,1-2.6,1.372,6.975,6.975,0,0,1-5.062.049c-1.862-.746-2.415-2.374-2.471-4.189-.066-2.164-.017-4.331-.021-6.5,0-1.3-.147-1.561-1.348-2.009-.783-.292-.755-.88-.762-1.532a1.111,1.111,0,0,1,.831-1.245c1.731-.506,3.459-1.027,5.2-1.5.9-.244,1.358.14,1.361,1.078.009,3.427,0,6.853,0,10.28,0,2.062.649,2.559,2.637,2.031.158-.042.313-.1.467-.15,1.636-.568,1.678-.628,1.678-2.331,0-1.617-.015-3.235.006-4.852.011-.893-.238-1.55-1.208-1.771-.785-.179-.856-.786-.847-1.471a1.219,1.219,0,0,1,.926-1.355c1.631-.46,3.249-.971,4.885-1.411,1.172-.316,1.556.007,1.559,1.243.009,3.564.029,7.128-.01,10.691-.012,1.125.158,1.976,1.441,2.286.653.157.856,1.064.627,2.074-.146.642-.624.666-1.143.662-1.425-.008-2.851-.045-4.272.012-.927.038-1.557-.193-1.71-1.2C4525.1,473.74,4525,473.657,4524.944,473.569Z" transform="translate(-4477.937 -450.024)"/>
      <path id="Trazado_26" data-name="Trazado 26" d="M4953.885,466.56c0,5.126-3.592,8.667-8.784,8.667a8.731,8.731,0,1,1,8.784-8.667Zm-5.171,1.806c-.045-.535-.059-.947-.119-1.353A7.505,7.505,0,0,0,4946.1,462a2.607,2.607,0,0,0-4.444,1.652,7.753,7.753,0,0,0-.049,2.2,7.3,7.3,0,0,0,2.7,5.33,2.549,2.549,0,0,0,4.15-1.406A12.091,12.091,0,0,0,4948.714,468.366Z" transform="translate(-4852.882 -449.865)"/>
      <path id="Trazado_27" data-name="Trazado 27" d="M5323.4,475.227a8.731,8.731,0,1,1-.014-17.461,8.731,8.731,0,1,1,.014,17.461Zm-3.625-9.97.075.007c.019.246.024.493.059.736a7.371,7.371,0,0,0,2.61,5.122,2.572,2.572,0,0,0,4.295-1.656,9.131,9.131,0,0,0,.019-2.685A7.194,7.194,0,0,0,5324.4,462a2.61,2.61,0,0,0-4.426,1.475A15.769,15.769,0,0,0,5319.774,465.258Z" transform="translate(-5187.73 -449.865)"/>
      <path id="Trazado_28" data-name="Trazado 28" d="M4219.155,475.385c-4.252-.06-7.437-2.235-8.545-6.031-1.045-3.579-.1-8.057,3.427-10.238,3.4-2.1,9.178-1.743,11.338,2.652,1.121,2.28,1.027,2.631-1.309,3.5-2.384.884-4.776,1.743-7.165,2.612-.863.314-.9.442-.34,1.183a5.693,5.693,0,0,0,7.419,1.092c.247-.172.482-.361.73-.53a1.189,1.189,0,0,1,1.517-.055,1.125,1.125,0,0,1,.239,1.425,6.412,6.412,0,0,1-4.957,4.1C4220.741,475.257,4219.941,475.29,4219.155,475.385Zm-3.947-10.09c1.741-.7,3.414-1.351,5.063-2.062a.815.815,0,0,0,.266-.75,2.237,2.237,0,0,0-2.044-1.521C4216.291,460.822,4214.8,462.723,4215.208,465.294Z" transform="translate(-4210.208 -449.959)"/>
      <path id="Trazado_29" data-name="Trazado 29" d="M5107.567,475.79c-3.941,0-6.92-1.944-8.16-5.314a9.461,9.461,0,0,1,2.325-10.194,8.1,8.1,0,0,1,6.759-1.753,10.036,10.036,0,0,0,2.517.036,1.187,1.187,0,0,1,1.418.792c.547,1.284,1.111,2.561,1.665,3.841.236.545.313,1.078-.271,1.456a1.29,1.29,0,0,1-1.73-.067c-.658-.619-1.24-1.331-1.951-1.879a7.589,7.589,0,0,0-2.179-1.244,2.832,2.832,0,0,0-3.717,1.912c-1,3.214.888,8.139,5.6,8.018a7.736,7.736,0,0,0,2.729-.937c.557-.248,1.045-.675,1.635-.159.571.5.369,1.106.124,1.662-1.138,2.578-3.293,3.6-5.946,3.827C5108.117,475.81,5107.842,475.79,5107.567,475.79Z" transform="translate(-4996.738 -450.437)"/>
      <path id="Trazado_30" data-name="Trazado 30" d="M5244.4,465.126c0,1.862.023,3.724-.011,5.586a1.38,1.38,0,0,0,1.017,1.48,1.683,1.683,0,0,1,.9,2.381,1.161,1.161,0,0,1-.855.464c-2.517.036-5.034.017-7.551.023a.849.849,0,0,1-.93-.826c-.193-1.176.057-1.65,1.2-2.125a1.175,1.175,0,0,0,.852-1.164q-.008-3.531-.007-7.061a1.4,1.4,0,0,0-1.131-1.5c-.859-.216-.967-.832-.946-1.575a1.273,1.273,0,0,1,1.063-1.341c1.554-.424,3.089-.914,4.639-1.355,1.238-.352,1.741.035,1.75,1.344C5244.412,461.347,5244.4,463.236,5244.4,465.126Z" transform="translate(-5118.974 -450.064)"/>
      <path id="Trazado_31" data-name="Trazado 31" d="M5249.756,395.287c-1.954-.052-3.237-1.045-3.383-2.656a2.593,2.593,0,0,1,2.09-2.9,7.142,7.142,0,0,1,2.493-.033,2.674,2.674,0,0,1,2.293,2.687,2.778,2.778,0,0,1-2.124,2.69A11.006,11.006,0,0,1,5249.756,395.287Z" transform="translate(-5127.332 -389.536)"/>
      <path id="Trazado_32" data-name="Trazado 32" d="M5361.7,394.082c-.3.175-.548.427-.818.457-2.358.264-4.718.513-7.082.693a1.11,1.11,0,0,1-.871-.616c-.446-1.746-.4-1.933,1.16-2.415,1.825-.566,3.622-1.225,5.434-1.834,1.106-.372,1.408-.19,1.634.951C5361.335,392.2,5361.507,393.077,5361.7,394.082Z" transform="translate(-5221.447 -390.054)"/>
    </g>
    <g id="Grupo_19" data-name="Grupo 19" transform="translate(103.141 27.429)">
      <g id="Grupo_17" data-name="Grupo 17" transform="translate(6.76 0)">
        <path id="Trazado_33" data-name="Trazado 33" d="M5295.344,653.935s-.492-.232-.534-.254a3.276,3.276,0,0,0-.567-.227,2.685,2.685,0,0,0-1.173-.124c-.25.047-.587.263-.486.56a.492.492,0,0,0,.234.257,7.237,7.237,0,0,0,1.547.411,2.193,2.193,0,0,1,1.249.768,1.863,1.863,0,0,1-.017,2.113,2.713,2.713,0,0,1-2.3.952,4.647,4.647,0,0,1-2.208-.574v-1.51a7.411,7.411,0,0,0,1.849.618,3.081,3.081,0,0,0,.732.037.865.865,0,0,0,.648-.308.415.415,0,0,0,.07-.291c-.038-.232-.279-.367-.5-.447a12.91,12.91,0,0,1-2.023-.647,1.648,1.648,0,0,1-.839-1.654,1.931,1.931,0,0,1,.941-1.394,2.7,2.7,0,0,1,1.209-.335,3.939,3.939,0,0,1,1.746.3c.1.043.426.2.426.2v1.546Z" transform="translate(-5276.752 -649.108)" fill="#101010"/>
        <g id="Grupo_12" data-name="Grupo 12" transform="translate(6.55 2.775)">
          <path id="Trazado_34" data-name="Trazado 34" d="M5227.176,651.91a3.253,3.253,0,1,0,3.253,3.253A3.253,3.253,0,0,0,5227.176,651.91Zm0,5.047a1.8,1.8,0,1,1,1.686-1.794A1.742,1.742,0,0,1,5227.176,656.957Z" transform="translate(-5223.923 -651.91)" fill="#101010"/>
        </g>
        <g id="Grupo_13" data-name="Grupo 13" transform="translate(0 2.775)">
          <path id="Trazado_35" data-name="Trazado 35" d="M5172.352,656a2.746,2.746,0,0,1-1.806.956c-1.321,0-2.089-.643-2.089-1.794,0-1.06.647-1.794,2.089-1.794a2.705,2.705,0,0,1,1.806.935v-1.775a3.546,3.546,0,0,0-2.016-.619,3.258,3.258,0,1,0,0,6.506,3.546,3.546,0,0,0,2.016-.619Z" transform="translate(-5166.904 -651.91)" fill="#101010"/>
        </g>
        <g id="Grupo_14" data-name="Grupo 14" transform="translate(20.311 2.775)">
          <path id="Trazado_36" data-name="Trazado 36" d="M5349.161,656a2.747,2.747,0,0,1-1.806.956c-1.322,0-2.09-.643-2.09-1.794,0-1.06.647-1.794,2.09-1.794a2.706,2.706,0,0,1,1.806.935v-1.775a3.543,3.543,0,0,0-2.015-.619,3.258,3.258,0,1,0,0,6.506,3.543,3.543,0,0,0,2.015-.619Z" transform="translate(-5343.714 -651.91)" fill="#101010"/>
        </g>
        <g id="Grupo_15" data-name="Grupo 15" transform="translate(34.648 2.775)">
          <path id="Trazado_37" data-name="Trazado 37" d="M5471.771,651.91a3.253,3.253,0,1,0,3.253,3.253A3.253,3.253,0,0,0,5471.771,651.91Zm0,5.047a1.8,1.8,0,1,1,1.686-1.794A1.742,1.742,0,0,1,5471.771,656.957Z" transform="translate(-5468.519 -651.91)" fill="#101010"/>
        </g>
        <g id="Grupo_16" data-name="Grupo 16" transform="translate(42.298 2.775)">
          <path id="Trazado_38" data-name="Trazado 38" d="M5538.362,651.91a3.253,3.253,0,1,0,3.253,3.253A3.253,3.253,0,0,0,5538.362,651.91Zm0,5.047a1.8,1.8,0,1,1,1.686-1.794A1.742,1.742,0,0,1,5538.362,656.957Z" transform="translate(-5535.109 -651.91)" fill="#101010"/>
        </g>
        <path id="Trazado_39" data-name="Trazado 39" d="M5406.689,630.523l.029.009a3.26,3.26,0,0,0-1.566.444v-3.218h-1.518v9.076h1.518v-4.16a2.053,2.053,0,0,1,1.551-.681,1.465,1.465,0,0,1,1.482,1.16h0v3.68h1.519v-3.68h0S5409.825,630.523,5406.689,630.523Z" transform="translate(-5376.44 -627.757)" fill="#101010"/>
        <path id="Trazado_40" data-name="Trazado 40" d="M5606.149,635.579c-.394.02-.751-.14-.859-.82v-7h-1.518v7.031a2.185,2.185,0,0,0,1.873,2.256,2.722,2.722,0,0,0,1.715-.387V635A1.729,1.729,0,0,1,5606.149,635.579Z" transform="translate(-5553.587 -627.757)" fill="#101010"/>
      </g>
      <g id="Grupo_18" data-name="Grupo 18" transform="translate(0 2.775)">
        <path id="Trazado_41" data-name="Trazado 41" d="M5108.061,651.91h.643v1.38h.008a.776.776,0,0,1,.66-.274,1.017,1.017,0,0,1,.951,1.109,1,1,0,0,1-1.024,1.075.807.807,0,0,1-.638-.326h-.009v.274h-.591Zm1.1,2.725a.527.527,0,1,0-.514-.527A.487.487,0,0,0,5109.166,654.635Z" transform="translate(-5108.061 -651.91)"/>
        <path id="Trazado_42" data-name="Trazado 42" d="M5130.582,664.4c-.171.441-.27.69-.882.69a1.518,1.518,0,0,1-.479-.077l.086-.527a.724.724,0,0,0,.3.064c.291,0,.338-.124.428-.351l.047-.12-.913-2.1h.694l.536,1.375h.008l.458-1.375h.66Z" transform="translate(-5126.744 -660.822)"/>
      </g>
    </g>
  </g>
</svg>
